<?xml version="1.0" standalone="no"?><!DOCTYPE svg PUBLIC "-//W3C//DTD SVG 1.1//EN" "http://www.w3.org/Graphics/SVG/1.1/DTD/svg11.dtd"><svg t="1724654802315" class="icon" viewBox="0 0 1024 1024" version="1.1" xmlns="http://www.w3.org/2000/svg" p-id="2083" xmlns:xlink="http://www.w3.org/1999/xlink" width="200" height="200"><path d="M804.529221 944.718226s-417.907346 17.952211-264.018981-161.054523c0 0 201.21692-170.601222 264.018981 161.054523z" fill="#009245" p-id="2084"></path><path d="M782.83441 1005.090665c-76.901234 0-242.275087-9.988448-288.032978-93.061905-22.713289-41.242229-13.277028-91.748928 28.051097-150.133493l2.331456-2.822289c3.374476-3.460371 83.699269-84.901809 169.889514-57.390629 72.815051 23.16731 122.352355 115.787466 147.249851 275.271324l4.0371 25.891432-26.173661 1.374332c-5.337807 0.282229-18.774356 0.871228-37.352379 0.871228zM560.278532 790.903487c-29.00822 41.536729-37.094691 74.606591-24.050809 98.301546 29.167741 52.985404 161.974835 69.943679 254.864949 68.593889-27.977472-153.385261-74.852007-199.670797-110.216512-211.058119-53.783008-17.166878-111.652199 35.536297-120.597628 44.162684z" fill="" p-id="2085"></path><path d="M204.093415 955.136153s494.968101-27.707513 292.53637-220.874775c0 0.049083-257.257759-177.620132-292.53637 220.874775z" fill="#009245" p-id="2086"></path><path d="M166.237933 1024l1.460228-26.173661C178.324692 808.647094 224.953811 694.847501 306.481145 659.716141c95.982361-41.303583 198.22284 43.50006 202.468544 47.144494l2.601414 2.576872c54.372007 62.581186 71.170761 119.566878 49.917699 169.202349-53.893445 125.824997-337.005824 142.636022-369.106291 144.133062zM362.742858 695.755542a93.957675 93.957675 0 0 0-37.695961 7.509743c-59.280336 25.682828-96.559089 119.026962-108.351349 270.522516 92.190677-7.902409 268.988664-38.100899 301.35909-113.738238 13.350653-31.204697-0.380395-70.913074-40.837292-118.020755C468.492792 735.022169 416.378616 695.755542 362.742858 695.755542z" fill="" p-id="2087"></path><path d="M476.211139 812.193361c-263.344086 50.543511-414.127933-38.162253-439.467178-262.963691-20.713146-184.000959 59.04719-351.804434 231.304973-455.775098 20.860395-51.856489 76.938047-76.336777 154.771863-86.865141 5.914536-0.785333 30.480719-1.975602 61.88175-0.785333l22.087477 2.895914C794.319898 80.153002 943.214039 303.629191 915.555608 549.22967c-25.216537 224.801438-176.000383 313.507202-439.295386 262.963691z m26.995806 34.112882" fill="#FFB0B0" p-id="2088"></path><path d="M378.449509 867.964242c-111.443595 0-196.897591-31.904134-255.02447-95.601965a23.645872 23.645872 0 0 1 34.910486-31.904134C227.02758 815.653733 345.207855 838.158418 509.636855 807.297304l4.356141-0.809874 4.356141 0.809874c141.543919 26.554056 249.220371 13.497903 320.010737-38.677628 56.703463-41.831228 90.88997-110.363763 101.602397-203.695626C968.356951 318.476884 811.769006 116.572798 541.001073 50.310365l-20.246855-2.601414c-31.904134-1.128916-54.678778 0.171791-58.335482 0.650354C383.2474 58.89994 338.912924 81.870917 322.911774 120.79396l-3.018622 7.362493-6.834847 4.0371C155.72184 224.997771 74.967568 369.867082 85.679994 540.087909A23.645872 23.645872 0 0 1 38.437334 543.069718C26.915033 359.277364 115.743505 196.492654 282.528502 95.332007c32.8858-67.661306 114.388592-85.981642 173.742553-93.847238 8.417783-1.079832 35.58538-2.135123 67.28091-0.969395l2.135123 0.171792 25.216537 3.362205C842.568766 74.913361 1017.808359 302.463463 986.971786 570.286399c-12.270821 106.915662-52.76453 186.516477-120.511732 236.409635-80.987418 59.746627-199.597172 75.870485-352.442516 47.856201Q440.920258 867.988784 378.449509 867.964242zM78.931043 665.385261a23.645872 23.645872 0 0 1-22.688748-17.0319c-3.681246-12.614404-6.88393-25.940515-9.522157-39.647022a23.645872 23.645872 0 0 1 46.445057-8.957699c2.355998 12.270821 5.215099 24.173517 8.479137 35.364506a23.645872 23.645872 0 0 1-16.074775 29.327261 24.136705 24.136705 0 0 1-6.638514 0.944854z" fill="" p-id="2089"></path><path d="M548.007711 856.589191c-0.711708 0-1.411144 0-2.135122-0.098166-89.356117-7.976034-158.858047-42.137999-206.603811-101.541043-87.60139-108.97716-69.035638-262.595566-68.201222-269.123643a23.645872 23.645872 0 0 1 46.911348 6.000432c-0.245416 2.036956-16.491983 140.869023 58.335482 233.710053 39.377064 48.862409 97.847525 77.073026 173.767094 83.846519a23.645872 23.645872 0 0 1-2.073769 47.205848z" fill="" p-id="2090"></path><path d="M204.093415 367.952834a24.541642 24.541642 0 0 1-3.337663-0.233146 23.633601 23.633601 0 0 1-20.111875-26.713577c16.185213-114.842612 126.389455-155.998945 131.040096-157.692318a23.645872 23.645872 0 0 1 16.160671 44.444913c-3.88985 1.447957-88.239473 33.732487-100.363044 119.836836A23.645872 23.645872 0 0 1 204.093415 367.952834z" fill="#FFFFFF" p-id="2091"></path><path d="M551.627604 449.750126a15.755734 15.755734 0 0 1-15.768005-15.768005 21.903415 21.903415 0 1 0-43.819101 0 15.768005 15.768005 0 0 1-31.523739 0 53.439425 53.439425 0 1 1 106.866579 0 15.755734 15.755734 0 0 1-15.755734 15.768005zM766.219719 441.565488A15.755734 15.755734 0 0 1 750.451714 425.797484a21.903415 21.903415 0 0 0-43.819101 0 15.768005 15.768005 0 1 1-31.523739 0 53.439425 53.439425 0 0 1 106.866579 0 15.755734 15.755734 0 0 1-15.755734 15.768004zM632.345063 614.277292a53.500779 53.500779 0 0 1-53.439425-53.439425 15.768005 15.768005 0 0 1 31.523739 0 21.903415 21.903415 0 1 0 43.819101 0 15.768005 15.768005 0 0 1 31.523739 0A53.500779 53.500779 0 0 1 632.345063 614.277292z" fill="" p-id="2092"></path><path d="M420.293008 541.634032a34.186507 13.792403 0 1 0 68.373014 0 34.186507 13.792403 0 1 0-68.373014 0Z" fill="#FF00FF" p-id="2093"></path><path d="M760.538329 541.634032a34.186507 13.792403 0 1 0 68.373013 0 34.186507 13.792403 0 1 0-68.373013 0Z" fill="#FF00FF" p-id="2094"></path></svg>